<?xml version="1.0" encoding="utf-8"?>
<!-- Generator: Adobe Illustrator 23.0.0, SVG Export Plug-In . SVG Version: 6.00 Build 0)  -->
<svg version="1.1" id="Capa_1" xmlns="http://www.w3.org/2000/svg" xmlns:xlink="http://www.w3.org/1999/xlink" x="0px" y="0px"
	 viewBox="0 0 512 512" style="enable-background:new 0 0 512 512;" xml:space="preserve">
<g>
	<g>
		<path d="M49,138v240.4c0,2.5,1.5,4.9,3.7,6l205.1,99c0.9,0.4,1.9,0.7,2.9,0.7s2-0.2,2.9-0.7l205.1-99c2.3-1.1,3.7-3.4,3.7-6V138
			c0-2.5-1.5-4.9-3.7-6l-205.1-99c-1.8-0.9-3.9-0.9-5.8,0l-205.1,99C50.5,133.2,49,135.5,49,138z M315.6,72.9l-188.6,91
			c-0.4,0.2-0.8,0.4-1.1,0.7l-55-26.6l189.8-91.6L315.6,72.9z M369.3,99.1l-189.5,91.5l-38.8-18.7l189.6-91.5L369.3,99.1z
			 M172.8,201.9v69.3l-36.3-17.5v-69.3L172.8,201.9z M62.3,374.3V148.6l61,29.5v79.8c0,2.5,1.5,4.9,3.7,6l49.5,23.9
			c0.9,0.4,1.9,0.7,2.9,0.7c1.2,0,2.4-0.3,3.5-1c1.9-1.2,3.1-3.3,3.1-5.6v-79.4c0,0,0.1-0.1,0.1-0.1l198.7-95.9l65.7,31.7
			l-143.2,69.1c-3.3,1.6-4.7,5.5-3.1,8.8c1.1,2.4,3.5,3.7,6,3.7c1,0,1.9-0.2,2.9-0.7l146.1-70.5v225.7l-191.8,92.6V241.2l17.5-8.4
			c3.3-1.6,4.7-5.5,3.1-8.8c-1.6-3.3-5.5-4.7-8.8-3.1l-18.3,8.9l-46.6-22.5c-3.3-1.6-7.2-0.2-8.8,3.1c-1.6,3.3-0.2,7.2,3.1,8.8
			l45.8,22.1v225.7L62.3,374.3L62.3,374.3z"/>
	</g>
</g>
<g>
	<g>
		<path d="M368.5,385.4c1.1,2.4,3.5,3.7,6,3.7c1,0,1.9-0.2,2.9-0.7l30.1-14.5c3.3-1.6,4.7-5.5,3.1-8.8c-1.6-3.3-5.5-4.7-8.8-3.1
			l-30.1,14.5C368.3,378.2,366.9,382.1,368.5,385.4z"/>
	</g>
</g>
<g>
	<g>
		<path d="M340.8,367.4c1.1,2.4,3.5,3.7,6,3.7c1,0,1.9-0.2,2.9-0.7l57.7-27.9c3.3-1.6,4.7-5.5,3.1-8.8c-1.6-3.3-5.5-4.7-8.8-3.1
			l-57.7,27.9C340.6,360.1,339.2,364.1,340.8,367.4z"/>
	</g>
</g>
</svg>
