<?xml version="1.0" encoding="utf-8"?>
<!-- Generator: Adobe Illustrator 23.0.0, SVG Export Plug-In . SVG Version: 6.00 Build 0)  -->
<svg version="1.1" id="Capa_1" xmlns="http://www.w3.org/2000/svg" xmlns:xlink="http://www.w3.org/1999/xlink" x="0px" y="0px"
	 viewBox="0 0 480 480" style="enable-background:new 0 0 480 480;" xml:space="preserve">
<g>
	<g>
		<path d="M238.4,23.5C118.5,23.5,20.9,121.1,20.9,241c0,52.5,18.7,100.8,49.8,138.4c0.1,0.1,0.1,0.2,0.2,0.3
			c22.5,27.1,50.7,47.9,82.1,61.3c0.4,0.2,0.7,0.3,1.1,0.5c2.5,1.1,5.1,2.1,7.7,3c1,0.4,2,0.8,3.1,1.1c2.2,0.8,4.5,1.6,6.7,2.3
			c1.4,0.5,2.9,0.9,4.3,1.4c2,0.6,4,1.2,6,1.7c1.8,0.5,3.6,0.9,5.3,1.3c1.8,0.4,3.6,0.9,5.4,1.3c2,0.4,4.1,0.8,6.1,1.2
			c1.7,0.3,3.3,0.6,5,0.9c2.3,0.4,4.6,0.7,6.9,1c1.5,0.2,3,0.4,4.5,0.6c2.6,0.3,5.2,0.5,7.9,0.7c1.2,0.1,2.4,0.2,3.7,0.3
			c3.8,0.2,7.7,0.3,11.7,0.3s7.8-0.1,11.7-0.3c1.2-0.1,2.5-0.2,3.7-0.3c2.6-0.2,5.3-0.4,7.9-0.7c1.5-0.2,3-0.4,4.5-0.6
			c2.3-0.3,4.6-0.6,6.9-1c1.7-0.3,3.3-0.6,5-0.9c2.1-0.4,4.1-0.8,6.1-1.2c1.8-0.4,3.6-0.8,5.4-1.3c1.8-0.4,3.6-0.9,5.3-1.3
			c2-0.5,4-1.1,6-1.7c1.5-0.4,2.9-0.9,4.3-1.4c2.3-0.7,4.5-1.5,6.7-2.3c1-0.4,2-0.8,3.1-1.1c2.6-1,5.2-2,7.7-3
			c0.4-0.2,0.7-0.3,1.1-0.5c31.4-13.4,59.7-34.2,82.1-61.3c0.1-0.1,0.1-0.2,0.2-0.3c31.1-37.6,49.8-85.9,49.8-138.4
			C455.9,121.1,358.4,23.5,238.4,23.5z M326.6,423.8c-0.1,0.1-0.2,0.1-0.3,0.2c-2.6,1.2-5.2,2.4-7.9,3.6c-0.6,0.3-1.2,0.5-1.8,0.8
			c-2.3,1-4.7,1.9-7,2.8c-1,0.4-2,0.7-3,1.1c-2.1,0.7-4.2,1.5-6.3,2.1c-1.3,0.4-2.6,0.8-4,1.2c-1.9,0.6-3.8,1.1-5.7,1.6
			c-1.6,0.4-3.2,0.8-4.9,1.2c-1.7,0.4-3.4,0.8-5.1,1.2c-1.9,0.4-3.8,0.7-5.7,1.1c-1.5,0.3-3.1,0.6-4.6,0.8c-2.1,0.3-4.3,0.6-6.4,0.9
			c-1.4,0.2-2.7,0.4-4.1,0.5c-2.4,0.3-4.9,0.4-7.4,0.6c-1.1,0.1-2.2,0.2-3.3,0.3c-3.6,0.2-7.2,0.3-10.8,0.3c-3.6,0-7.2-0.1-10.8-0.3
			c-1.1-0.1-2.2-0.2-3.3-0.3c-2.5-0.2-4.9-0.3-7.4-0.6c-1.4-0.1-2.7-0.3-4.1-0.5c-2.1-0.3-4.3-0.5-6.4-0.9c-1.5-0.2-3.1-0.5-4.6-0.8
			c-1.9-0.3-3.8-0.7-5.7-1.1c-1.7-0.4-3.4-0.8-5.1-1.2c-1.6-0.4-3.2-0.8-4.9-1.2c-1.9-0.5-3.8-1.1-5.7-1.6c-1.3-0.4-2.7-0.8-4-1.2
			c-2.1-0.7-4.2-1.4-6.3-2.1c-1-0.4-2-0.7-3-1.1c-2.4-0.9-4.7-1.8-7-2.8c-0.6-0.2-1.2-0.5-1.8-0.8c-2.7-1.1-5.3-2.3-7.9-3.6
			c-0.1-0.1-0.2-0.1-0.3-0.2c-25.3-12.2-47.6-29.6-65.8-50.7c14-51.6,53.7-93.2,104.7-109.8c1,0.6,2.1,1.2,3.1,1.7
			c0.6,0.3,1.2,0.7,1.8,1c2.2,1.1,4.3,2.2,6.6,3.2c1.7,0.8,3.5,1.4,5.3,2c0.3,0.1,0.7,0.3,1,0.4c9.8,3.5,20.4,5.5,31.4,5.5
			s21.5-2,31.3-5.5c0.3-0.1,0.7-0.3,1-0.4c1.8-0.7,3.5-1.3,5.3-2c2.2-1,4.4-2,6.6-3.2c0.6-0.3,1.2-0.7,1.8-1c1-0.6,2.1-1.1,3.1-1.8
			c51,16.6,90.7,58.2,104.7,109.8C374.2,394.2,351.9,411.6,326.6,423.8z M158.7,183c0-44,35.8-79.8,79.8-79.8s79.7,35.8,79.7,79.8
			c0,28-14.5,52.6-36.4,66.8c-2.9,1.9-5.8,3.5-8.9,5c-0.4,0.2-0.7,0.4-1.1,0.5c-21,9.5-45.8,9.5-66.8,0c-0.4-0.2-0.7-0.3-1.1-0.5
			c-3.1-1.5-6-3.1-8.9-5C173.2,235.6,158.7,211,158.7,183z M403.2,359.3c-16.4-48.5-53.9-87.8-101.8-106.4
			c19.2-17.3,31.3-42.2,31.3-70c0-52-42.3-94.3-94.2-94.3S144.2,131,144.2,183c0,27.8,12.1,52.7,31.3,70
			c-47.9,18.6-85.4,57.9-101.8,106.4C49.6,326,35.4,285.1,35.4,241c0-111.9,91.1-203,203-203s203,91.1,203,203
			C441.4,285.1,427.2,326,403.2,359.3z"/>
	</g>
</g>
</svg>
